<svg xmlns="http://www.w3.org/2000/svg" viewBox="0 0 499.9 499.9"><defs><style>.cls-1{fill:#fff;}.cls-2{fill:#f6f6f8;}.cls-3{fill:#f7f8f9;}.cls-4{fill:#f5f5f7;}</style></defs><title>whats</title><g id="Camada_2" data-name="Camada 2"><g id="Camada_1-2" data-name="Camada 1"><path class="cls-1" d="M499.9,237.77c-.45-.58-.24-1.26-.24-1.88a146,146,0,0,0-2.28-25.9A252.23,252.23,0,0,0,411.94,58.8,248.85,248.85,0,0,0,305.23,5.27,199,199,0,0,0,276.39.69c-4.26-.33-8.55-.18-12.8-.69H236.31c-.58.45-1.25.24-1.88.24a135.52,135.52,0,0,0-18.67,1.22A249.52,249.52,0,0,0,111.83,40.73,253,253,0,0,0,62.61,83.66,251.37,251.37,0,0,0,2.93,207.59a159.43,159.43,0,0,0-2.52,21.5c-.1,2.88.2,5.81-.41,8.68v27.28c.45.58.24,1.25.23,1.88a143.88,143.88,0,0,0,2.3,25.88A252.34,252.34,0,0,0,146.34,481.28,218.81,218.81,0,0,0,174,491.91c11.62,3.56,23.27,7,35.47,8h80.88c3-.59,6.1-.45,9.11-1.1A274.4,274.4,0,0,0,334.39,489a250.73,250.73,0,0,0,53.81-27,253.33,253.33,0,0,0,49.16-42.93A251.38,251.38,0,0,0,497,295.21a161,161,0,0,0,2.52-21.48c.11-2.89-.21-5.81.41-8.68Zm-53.59,1.46a143.24,143.24,0,0,1-3.51,25.4,160,160,0,0,1-13,37.28,204,204,0,0,1-22.7,35.85,175.58,175.58,0,0,1-18.25,19.51,161.2,161.2,0,0,1-30.32,22.11,183.27,183.27,0,0,1-30.57,13.71A192.59,192.59,0,0,1,297,401,107.3,107.3,0,0,1,276.75,403a61.7,61.7,0,0,1-11.69,0,168.51,168.51,0,0,1-63.2-13.29,144.35,144.35,0,0,1-14.27-6.77,8.85,8.85,0,0,0-7.65-.55c-9.92,3.27-19.89,6.42-29.84,9.63L91.35,410.88a9.45,9.45,0,0,1-1.65.4c-1.07.15-2.31,1.45-3.08.48-.62-.77.38-2.11.73-3.16q9.78-29.16,19.61-58.31c3.34-9.91,6.62-19.84,10.1-29.69a6.26,6.26,0,0,0-.57-5.74,166.49,166.49,0,0,1-11.63-23.77A160.17,160.17,0,0,1,95,254.4a105.41,105.41,0,0,1-1.44-15.66c-.44-.72-.14-1.51-.23-2.26s.25-1.78-.24-2.61V216.81c.58-.73-.1-1.7.47-2.44-.59-2.22-.12-4.49.1-6.67a172.5,172.5,0,0,1,12.22-49.19,175.91,175.91,0,0,1,26.2-43.22,175,175,0,0,1,15.18-16.68,178.69,178.69,0,0,1,36.59-27.36A170.8,170.8,0,0,1,240,52.07a155.52,155.52,0,0,1,25-2.38,60.08,60.08,0,0,1,11.69,0,163.94,163.94,0,0,1,43.84,7.23A178.12,178.12,0,0,1,384,91.33c4.48,3.75,8.73,7.72,12.81,11.89a173.68,173.68,0,0,1,24.83,32.52,172.13,172.13,0,0,1,23.3,66.39c.62,4.56,1.07,9.13,1.41,13.71.44.74.14,1.55.22,2.32.13,1-.26,2.06.25,3v15.59C446.21,237.52,446.88,238.49,446.31,239.23Z"/><path class="cls-1" d="M276.75,49.69H265.06A29.13,29.13,0,0,1,276.75,49.69Z"/><path class="cls-1" d="M265.06,403h11.69A29.13,29.13,0,0,1,265.06,403Z"/><path class="cls-2" d="M446.79,221.2c-.84-.87-.35-1.95-.48-2.93.16-.23.32-.23.48,0Z"/><path class="cls-3" d="M93.54,214.37c-.09.83.29,1.75-.47,2.44C93.15,216,92.79,215.07,93.54,214.37Z"/><path class="cls-1" d="M446.79,218.28h-.48c0-.81,0-1.62,0-2.43C447.07,216.54,446.7,217.46,446.79,218.28Z"/><path class="cls-3" d="M93.07,233.87c.76.7.38,1.62.47,2.44-.16.24-.32.23-.48,0Z"/><path class="cls-1" d="M93.06,236.3h.48v2.43C92.78,238,93.15,237.13,93.06,236.3Z"/><path class="cls-1" d="M446.31,239.23c.09-.83-.28-1.74.48-2.44C446.7,237.62,447.07,238.53,446.31,239.23Z"/><path class="cls-4" d="M121.31,220.72v8.76A16.69,16.69,0,0,1,121.31,220.72Z"/><path class="cls-2" d="M272.36,78H267A6.48,6.48,0,0,1,272.36,78Z"/><path class="cls-2" d="M418.53,220.72c-.84-.87-.35-1.95-.48-2.93C418.89,218.66,418.4,219.74,418.53,220.72Z"/><path class="cls-2" d="M418.05,233.87c.13-1-.35-2.06.48-2.93C418.4,231.92,418.89,233,418.05,233.87Z"/><path class="cls-3" d="M269,374.69h2.91A2.25,2.25,0,0,1,269,374.69Z"/><path class="cls-1" d="M418.53,220.72c-.62-.9.12-2-.48-2.93A62.8,62.8,0,0,0,417,205a149.31,149.31,0,0,0-12.22-41,144.77,144.77,0,0,0-39.12-51,150.66,150.66,0,0,0-35.16-22.27A147.06,147.06,0,0,0,272.36,78,13,13,0,0,0,267,78a123.17,123.17,0,0,0-21.94,1.94,144,144,0,0,0-38.36,11.87,149.73,149.73,0,0,0-29.07,18,146.87,146.87,0,0,0-26,26,149.28,149.28,0,0,0-21.31,38.55c-5.53,15-9,30.36-9,46.4a34.71,34.71,0,0,0,0,8.76c-.14,8,1.13,15.92,2.38,23.82A133.5,133.5,0,0,0,135,289.54a144.1,144.1,0,0,0,12.64,21.56,5.22,5.22,0,0,1,.73,5.18c-5.74,16.62-11.35,33.28-17,49.93-.21.64-.83,1.41-.18,2s1.23-.08,1.83-.28c16.81-5.42,33.63-10.77,50.39-16.35a8.78,8.78,0,0,1,8.22,1.11,134.43,134.43,0,0,0,30.61,14.6,138.48,138.48,0,0,0,46.7,7.42,4.06,4.06,0,0,0,2.91,0,97.56,97.56,0,0,0,21.25-1.58c17.23-3.13,33.72-8.4,49.11-17A147.61,147.61,0,0,0,387,317.6a143.8,143.8,0,0,0,25.17-48.45,141.18,141.18,0,0,0,5.84-35.28c.6-.91-.14-2,.48-2.93Zm-65.39,73.14c-3.05,3.71-7.13,6.36-11.26,8.73a48.31,48.31,0,0,1-26,6.79,44.66,44.66,0,0,1-11.43-2.08c-13.35-4-26.64-8.3-39-14.83a144,144,0,0,1-27.64-18.74c-13.16-11.46-24.25-24.64-34.17-38.91a157.61,157.61,0,0,1-12.37-20c-3.79-7.67-7-17.08-6.62-27.22-.28-12.67,4-23,11.53-32.28,3.29-4,7.07-7.23,12.08-8.54,4.58-1.21,9.34-.79,14-.24,2.61.32,4.2,2.29,5.32,4.57,4,8.16,7.12,16.69,10.69,25,1.4,3.28,2.68,6.61,4.12,9.86,1.59,3.6,1,7-.89,10.2a67.57,67.57,0,0,1-9.44,12c-3.68,3.85-3.91,5.82-1.16,10.29,4.86,7.88,10.14,15.46,16.7,22,12.36,12.31,26.48,22,42.87,28.29,3.81,1.45,6,.82,8.52-2.34q6.71-8.46,13.53-16.82c2.32-2.84,4.53-3.33,8-1.88,12.34,5.2,24.32,11.16,36.27,17.18a5.37,5.37,0,0,1,3.29,5C360,278.52,358.84,286.91,353.14,293.86Z"/></g></g></svg>